<?xml version="1.0" standalone="no"?>
<!DOCTYPE svg PUBLIC "-//W3C//DTD SVG 20010904//EN"
 "http://www.w3.org/TR/2001/REC-SVG-20010904/DTD/svg10.dtd">
<svg version="1.0" xmlns="http://www.w3.org/2000/svg"
 width="512.000000pt" height="512.000000pt" viewBox="0 0 512.000000 512.000000"
 preserveAspectRatio="xMidYMid meet">

<g transform="translate(0.000000,512.000000) scale(0.100000,-0.100000)"
fill="#000000" stroke="none">
<path d="M3445 4976 c-68 -32 -213 -129 -310 -207 -109 -88 -265 -239 -276
-266 -17 -46 23 -103 72 -103 24 0 52 21 146 110 126 120 264 228 370 290 37
22 71 40 74 40 7 0 63 -204 79 -289 28 -149 41 -299 41 -479 0 -106 -4 -199
-8 -207 -5 -7 -56 -57 -116 -110 -79 -71 -107 -102 -107 -120 0 -25 33 -55 62
-55 14 0 16 -6 11 -35 -6 -38 17 -85 42 -85 8 0 15 -6 15 -13 0 -56 -221 -525
-308 -652 l-47 -70 -126 -55 c-70 -30 -134 -61 -143 -69 -24 -20 -20 -48 15
-96 21 -29 29 -50 25 -63 -10 -30 -236 -217 -236 -195 0 5 153 429 340 943
227 622 339 943 335 958 -14 60 -86 82 -128 40 -14 -15 -145 -363 -382 -1015
-198 -546 -363 -993 -366 -993 -10 0 -64 126 -88 205 -38 122 -54 248 -54 429
0 125 3 170 13 176 7 4 40 11 73 15 153 17 163 63 52 229 l-75 111 30 115 c72
273 160 491 259 643 32 49 51 88 51 107 0 40 -32 70 -74 70 -29 0 -40 -7 -68
-42 -106 -133 -213 -370 -288 -633 l-22 -80 -317 -1 c-523 -1 -935 -46 -1361
-150 -230 -55 -458 -132 -577 -193 -79 -40 -73 84 -73 -1516 0 -1543 -3 -1461
52 -1497 42 -27 75 -29 130 -9 367 135 583 191 958 246 139 21 168 28 183 46
23 28 22 74 -3 99 -26 26 -68 26 -260 -4 -295 -47 -586 -118 -794 -196 -60
-22 -110 -40 -112 -40 -2 0 -4 618 -4 1373 l0 1373 85 33 c284 111 626 193
1005 240 302 37 716 58 923 46 l123 -7 -4 -31 c-3 -25 7 -47 48 -106 28 -40
49 -76 46 -79 -3 -2 -27 -8 -53 -13 -76 -15 -85 -30 -97 -164 l-10 -116 -80 6
c-103 8 -553 -10 -756 -30 -194 -20 -383 -48 -570 -86 -195 -39 -247 -55 -260
-80 -18 -32 -8 -80 21 -101 26 -19 26 -19 185 16 382 85 665 116 1120 123
l341 6 12 -108 c7 -58 23 -150 37 -203 13 -53 24 -97 24 -98 0 -1 -127 -2
-282 -3 -256 0 -529 -12 -632 -27 -21 -3 -47 -15 -57 -25 -26 -26 -25 -81 2
-105 24 -21 33 -22 259 -5 80 6 287 11 460 11 l316 0 37 -62 c20 -35 43 -72
51 -83 12 -18 8 -36 -40 -165 -30 -80 -54 -159 -54 -176 0 -59 75 -90 119 -50
11 10 36 63 56 119 84 229 67 202 140 222 36 9 114 41 175 71 60 30 119 54
132 54 45 0 327 -62 528 -115 113 -30 220 -55 237 -55 22 0 38 8 52 26 35 45
24 93 -26 112 -43 17 -355 99 -483 127 -63 14 -126 28 -139 31 -22 5 -19 9 43
74 36 37 66 76 66 85 0 21 -17 54 -43 82 -11 13 -19 25 -16 27 2 2 46 22 97
45 l93 40 162 -44 c88 -25 175 -45 193 -45 37 0 74 38 74 75 0 45 -29 63 -163
98 -70 19 -130 36 -133 40 -3 3 23 57 58 120 35 63 86 161 112 219 l48 105
111 -23 c62 -12 149 -28 195 -34 l82 -12 0 -1140 0 -1140 34 -34 c25 -25 43
-34 68 -34 45 0 67 17 123 96 57 80 140 137 222 154 143 30 300 -54 369 -198
39 -81 40 -192 2 -274 -37 -79 -98 -142 -177 -181 l-66 -32 -200 1 c-306 2
-554 40 -965 149 -438 117 -762 164 -1270 186 -343 15 -657 4 -689 -25 -26
-24 -29 -87 -4 -107 13 -11 89 -14 392 -15 601 -1 998 -45 1441 -161 516 -135
716 -169 1065 -179 228 -8 284 1 391 61 74 42 172 144 208 217 57 118 56 102
56 974 0 796 0 801 -21 828 -27 34 -77 36 -107 3 l-22 -23 0 -603 0 -603 -39
31 c-59 47 -157 89 -239 102 -129 21 -263 -19 -374 -112 l-48 -40 0 1150 c0
790 3 1166 11 1201 14 64 75 157 131 196 163 116 384 80 492 -80 63 -94 66
-115 66 -553 l0 -394 26 -26 c20 -20 31 -24 57 -19 68 13 67 5 67 441 0 223
-4 415 -10 446 -49 260 -310 443 -568 399 -225 -38 -395 -219 -418 -444 -4
-37 -10 -66 -13 -66 -4 0 -70 11 -147 25 -76 14 -141 25 -144 25 -3 0 -11 4
-17 8 -10 6 -6 27 17 90 17 46 30 95 30 111 0 36 -33 66 -94 83 l-49 13 96 84
c53 47 99 92 103 100 13 33 16 340 5 456 -32 336 -117 649 -198 727 -74 72
-175 88 -268 44z"/>
<path d="M885 2205 c-307 -62 -349 -79 -343 -144 2 -23 12 -40 30 -54 l28 -21
112 27 c62 14 165 35 228 47 94 18 119 26 138 46 25 28 27 42 11 77 -11 24
-48 48 -72 46 -7 0 -66 -11 -132 -24z"/>
<path d="M1555 1729 c-408 -31 -940 -123 -992 -172 -33 -30 -31 -79 4 -107 31
-24 29 -25 198 14 342 79 783 126 1183 126 l204 0 30 30 c24 25 29 36 23 58
-15 63 -13 62 -289 61 -138 -1 -300 -6 -361 -10z"/>
<path d="M1640 1174 c-25 -2 -103 -8 -175 -14 -192 -15 -418 -47 -617 -86
-276 -54 -308 -67 -308 -130 0 -41 42 -78 80 -71 14 2 102 20 196 40 363 76
648 106 1084 114 300 5 376 3 740 -23 75 -6 88 -4 109 13 32 26 33 76 3 106
-18 18 -43 24 -140 34 -110 12 -873 25 -972 17z"/>
<path d="M3006 1079 c-19 -15 -26 -30 -26 -55 0 -54 23 -68 151 -93 126 -25
298 -67 458 -112 133 -37 173 -38 200 -3 51 65 13 105 -139 145 -320 83 -565
139 -609 139 -5 0 -20 -9 -35 -21z"/>
</g>
</svg>
